<svg xmlns="http://www.w3.org/2000/svg" viewBox="0 0 760 492" font-family="-apple-system, 'Noto Sans CJK TC', 'Microsoft JhengHei', sans-serif">
  <defs>
    <marker id="ah" viewBox="0 0 10 10" refX="8" refY="5" markerWidth="7" markerHeight="7" orient="auto-start-reverse">
      <path d="M2 1L8 5L2 9" fill="none" stroke="#5F5E5A" stroke-width="1.6" stroke-linecap="round" stroke-linejoin="round"/>
    </marker>
  </defs>
  <rect x="0" y="0" width="760" height="492" fill="#ffffff"/>
  <text x="20" y="27" font-size="16" font-weight="600" fill="#2C2C2A">生產階段角色泳道（現況 as-is）</text>
  <text x="20" y="466" font-size="11" fill="#888780">琥珀＝人工／紙本作業；珊瑚＝最大人力成本（跨平台重複維護＋人工回填）。起點：印務分配工單；終點：出貨完成。</text>

  <line x1="112" y1="44" x2="112" y2="450" stroke="#B4B2A9" stroke-width="1"/>
  <line x1="8" y1="44" x2="752" y2="44" stroke="#D3D1C7" stroke-width="1"/>
  <line x1="8" y1="130" x2="752" y2="130" stroke="#D3D1C7" stroke-width="1"/>
  <line x1="8" y1="216" x2="752" y2="216" stroke="#D3D1C7" stroke-width="1"/>
  <line x1="8" y1="302" x2="752" y2="302" stroke="#D3D1C7" stroke-width="1"/>
  <line x1="8" y1="388" x2="752" y2="388" stroke="#D3D1C7" stroke-width="1"/>
  <line x1="8" y1="450" x2="752" y2="450" stroke="#D3D1C7" stroke-width="1"/>

  <text x="16" y="84" font-size="13" fill="#2C2C2A">印務</text>
  <text x="16" y="101" font-size="11" fill="#888780">兼派工</text>
  <text x="16" y="177" font-size="13" fill="#2C2C2A">廠務</text>
  <text x="16" y="255" font-size="13" fill="#2C2C2A">產線師傅</text>
  <text x="16" y="272" font-size="11" fill="#888780">外包</text>
  <text x="16" y="349" font-size="13" fill="#2C2C2A">品檢人員</text>
  <text x="16" y="421" font-size="13" fill="#2C2C2A">出貨部</text>

  <circle cx="130" cy="86" r="7" fill="#5F5E5A"/>
  <line x1="137" y1="86" x2="158" y2="86" stroke="#5F5E5A" stroke-width="1.4" marker-end="url(#ah)"/>

  <g>
    <rect x="160" y="62" width="180" height="48" rx="5" fill="#FAEEDA" stroke="#BA7517" stroke-width="1"/>
    <text x="250" y="83" font-size="12.5" fill="#633806" text-anchor="middle">報價單翻成紙本工單</text>
    <text x="250" y="100" font-size="11" fill="#854F0B" text-anchor="middle">載體：紙本工單</text>
  </g>
  <g>
    <rect x="160" y="148" width="180" height="48" rx="5" fill="#FAEEDA" stroke="#BA7517" stroke-width="1"/>
    <text x="250" y="169" font-size="12.5" fill="#633806" text-anchor="middle">實體派送紙本工單</text>
    <text x="250" y="186" font-size="11" fill="#854F0B" text-anchor="middle">工單跟著貨走</text>
  </g>
  <g>
    <rect x="420" y="148" width="180" height="48" rx="5" fill="#FAEEDA" stroke="#BA7517" stroke-width="1"/>
    <text x="510" y="169" font-size="12.5" fill="#633806" text-anchor="middle">段序間場內轉交</text>
    <text x="510" y="186" font-size="11" fill="#854F0B" text-anchor="middle">半成品送下一站</text>
  </g>
  <g>
    <rect x="160" y="232" width="180" height="48" rx="5" fill="#FAEEDA" stroke="#BA7517" stroke-width="1"/>
    <text x="250" y="253" font-size="12.5" fill="#633806" text-anchor="middle">收工單製作</text>
    <text x="250" y="270" font-size="11" fill="#854F0B" text-anchor="middle">派單串 LINE 回報＋照片</text>
  </g>
  <g>
    <rect x="420" y="318" width="180" height="48" rx="5" fill="#FAEEDA" stroke="#BA7517" stroke-width="1"/>
    <text x="510" y="339" font-size="12.5" fill="#633806" text-anchor="middle">依工單品檢</text>
    <text x="510" y="356" font-size="11" fill="#854F0B" text-anchor="middle">品檢群組回報</text>
  </g>
  <g>
    <rect x="408" y="404" width="212" height="48" rx="5" fill="#FAECE7" stroke="#993C1D" stroke-width="1"/>
    <text x="514" y="425" font-size="12.5" fill="#4A1B0C" text-anchor="middle">跨平台切狀態·超商單手寫</text>
    <text x="514" y="442" font-size="11" fill="#712B13" text-anchor="middle">人工回填運費總表</text>
  </g>

  <circle cx="668" cy="428" r="9" fill="none" stroke="#5F5E5A" stroke-width="1.6"/>
  <circle cx="668" cy="428" r="4" fill="#5F5E5A"/>

  <line x1="250" y1="110" x2="250" y2="146" stroke="#5F5E5A" stroke-width="1.4" marker-end="url(#ah)"/>
  <line x1="250" y1="196" x2="250" y2="230" stroke="#5F5E5A" stroke-width="1.4" marker-end="url(#ah)"/>
  <path d="M340 256 H380 V172 H418" fill="none" stroke="#5F5E5A" stroke-width="1.4" marker-end="url(#ah)"/>
  <line x1="560" y1="196" x2="560" y2="316" stroke="#5F5E5A" stroke-width="1.4" marker-end="url(#ah)"/>
  <line x1="500" y1="366" x2="500" y2="402" stroke="#5F5E5A" stroke-width="1.4" marker-end="url(#ah)"/>
  <line x1="620" y1="428" x2="657" y2="428" stroke="#5F5E5A" stroke-width="1.4" marker-end="url(#ah)"/>
</svg>
