<svg xmlns="http://www.w3.org/2000/svg" viewBox="0 0 820 600" font-family="-apple-system, 'Noto Sans CJK TC', 'Microsoft JhengHei', sans-serif">
  <defs>
    <marker id="ah2" viewBox="0 0 10 10" refX="8" refY="5" markerWidth="7" markerHeight="7" orient="auto-start-reverse">
      <path d="M2 1L8 5L2 9" fill="none" stroke="#5F5E5A" stroke-width="1.6" stroke-linecap="round" stroke-linejoin="round"/>
    </marker>
  </defs>
  <rect x="0" y="0" width="820" height="600" fill="#ffffff"/>
  <text x="20" y="27" font-size="16" font-weight="600" fill="#2C2C2A">生產階段角色泳道（導入 ERP+MES 後 to-be）</text>
  <text x="20" y="582" font-size="11" fill="#888780">藍綠＝系統化作業；藍＝自動推進與數據化；灰虛線＝中國／外包外發分支（派單與貨運單為獨立實體）。起點：系統自動產生工單；終點：出貨完成。</text>

  <line x1="112" y1="44" x2="112" y2="562" stroke="#B4B2A9" stroke-width="1"/>
  <line x1="8" y1="44" x2="812" y2="44" stroke="#D3D1C7" stroke-width="1"/>
  <line x1="8" y1="118" x2="812" y2="118" stroke="#D3D1C7" stroke-width="1"/>
  <line x1="8" y1="192" x2="812" y2="192" stroke="#D3D1C7" stroke-width="1"/>
  <line x1="8" y1="266" x2="812" y2="266" stroke="#D3D1C7" stroke-width="1"/>
  <line x1="8" y1="340" x2="812" y2="340" stroke="#D3D1C7" stroke-width="1"/>
  <line x1="8" y1="414" x2="812" y2="414" stroke="#D3D1C7" stroke-width="1"/>
  <line x1="8" y1="488" x2="812" y2="488" stroke="#D3D1C7" stroke-width="1"/>
  <line x1="8" y1="562" x2="812" y2="562" stroke="#D3D1C7" stroke-width="1"/>

  <text x="16" y="85" font-size="13" fill="#2C2C2A">印務主管</text>
  <text x="16" y="159" font-size="13" fill="#2C2C2A">印務</text>
  <text x="16" y="233" font-size="13" fill="#2C2C2A">生管</text>
  <text x="16" y="307" font-size="13" fill="#2C2C2A">廠務</text>
  <text x="16" y="380" font-size="13" fill="#2C2C2A">師傅</text>
  <text x="16" y="397" font-size="11" fill="#888780">供應商</text>
  <text x="16" y="455" font-size="13" fill="#2C2C2A">品檢人員</text>
  <text x="16" y="529" font-size="13" fill="#2C2C2A">出貨人員</text>

  <circle cx="132" cy="81" r="7" fill="#5F5E5A"/>
  <line x1="139" y1="81" x2="148" y2="81" stroke="#5F5E5A" stroke-width="1.4" marker-end="url(#ah2)"/>

  <g>
    <rect x="150" y="58" width="190" height="46" rx="5" fill="#E1F5EE" stroke="#0F6E56" stroke-width="1"/>
    <text x="245" y="79" font-size="12.5" fill="#04342C" text-anchor="middle">系統自動產生工單</text>
    <text x="245" y="96" font-size="11" fill="#0F6E56" text-anchor="middle">統一分派給印務</text>
  </g>
  <g>
    <rect x="380" y="58" width="190" height="46" rx="5" fill="#E1F5EE" stroke="#0F6E56" stroke-width="1"/>
    <text x="475" y="79" font-size="12.5" fill="#04342C" text-anchor="middle">製程審核核可</text>
    <text x="475" y="96" font-size="11" fill="#0F6E56" text-anchor="middle">取得交付產線資格</text>
  </g>
  <g>
    <rect x="150" y="132" width="190" height="46" rx="5" fill="#E1F5EE" stroke="#0F6E56" stroke-width="1"/>
    <text x="245" y="153" font-size="12.5" fill="#04342C" text-anchor="middle">配方展開生產任務</text>
    <text x="245" y="170" font-size="11" fill="#0F6E56" text-anchor="middle">送主管審核</text>
  </g>
  <g>
    <rect x="380" y="132" width="190" height="46" rx="5" fill="#E1F5EE" stroke="#0F6E56" stroke-width="1"/>
    <text x="475" y="153" font-size="12.5" fill="#04342C" text-anchor="middle">建轉交單·建 QC 單</text>
    <text x="475" y="170" font-size="11" fill="#0F6E56" text-anchor="middle">異常處置決策</text>
  </g>
  <g>
    <rect x="380" y="206" width="190" height="46" rx="5" fill="#E1F5EE" stroke="#0F6E56" stroke-width="1"/>
    <text x="475" y="227" font-size="12.5" fill="#04342C" text-anchor="middle">工作包聚合派工</text>
    <text x="475" y="244" font-size="11" fill="#0F6E56" text-anchor="middle">相依前置守衛</text>
  </g>
  <g>
    <rect x="380" y="280" width="190" height="46" rx="5" fill="#E1F5EE" stroke="#0F6E56" stroke-width="1"/>
    <text x="475" y="301" font-size="12.5" fill="#04342C" text-anchor="middle">依轉交單場內搬運</text>
    <text x="475" y="318" font-size="11" fill="#0F6E56" text-anchor="middle">半成品流轉</text>
  </g>
  <g>
    <rect x="380" y="354" width="190" height="46" rx="5" fill="#E6F1FB" stroke="#185FA5" stroke-width="1"/>
    <text x="475" y="375" font-size="12.5" fill="#042C53" text-anchor="middle">自助介面報工</text>
    <text x="475" y="392" font-size="11" fill="#185FA5" text-anchor="middle">狀態自動向上推進</text>
  </g>
  <g>
    <rect x="380" y="428" width="190" height="46" rx="5" fill="#E1F5EE" stroke="#0F6E56" stroke-width="1"/>
    <text x="475" y="449" font-size="12.5" fill="#04342C" text-anchor="middle">執行品檢填數</text>
    <text x="475" y="466" font-size="11" fill="#0F6E56" text-anchor="middle">通過數驅動入庫</text>
  </g>
  <g>
    <rect x="380" y="502" width="190" height="46" rx="5" fill="#E1F5EE" stroke="#0F6E56" stroke-width="1"/>
    <text x="475" y="523" font-size="12.5" fill="#04342C" text-anchor="middle">額度守衛建出貨單</text>
    <text x="475" y="540" font-size="11" fill="#0F6E56" text-anchor="middle">狀態機自動收尾</text>
  </g>

  <circle cx="648" cy="525" r="9" fill="none" stroke="#5F5E5A" stroke-width="1.6"/>
  <circle cx="648" cy="525" r="4" fill="#5F5E5A"/>

  <g>
    <rect x="610" y="58" width="196" height="46" rx="5" fill="#E6F1FB" stroke="#185FA5" stroke-width="1" stroke-dasharray="5 3"/>
    <text x="708" y="79" font-size="12" fill="#042C53" text-anchor="middle">管理層 Supervisor（旁觀）</text>
    <text x="708" y="96" font-size="11" fill="#185FA5" text-anchor="middle">跨訂單看板·KPI 衍生 P2/P3</text>
  </g>
  <g>
    <rect x="610" y="132" width="196" height="58" rx="5" fill="#F1EFE8" stroke="#888780" stroke-width="1" stroke-dasharray="5 3"/>
    <text x="708" y="155" font-size="12" fill="#444441" text-anchor="middle">中國／外包：建派單外發</text>
    <text x="708" y="173" font-size="11" fill="#5F5E5A" text-anchor="middle">持大陸處理狀態（派單狀態 14 值）</text>
  </g>
  <g>
    <rect x="610" y="206" width="196" height="58" rx="5" fill="#F1EFE8" stroke="#888780" stroke-width="1" stroke-dasharray="5 3"/>
    <text x="708" y="229" font-size="12" fill="#444441" text-anchor="middle">貨運單回台·收貨秤重</text>
    <text x="708" y="247" font-size="11" fill="#5F5E5A" text-anchor="middle">運費關稅分攤回生產任務</text>
  </g>
  <text x="708" y="288" font-size="11" fill="#888780" text-anchor="middle">回台後回到內部流程</text>
  <text x="708" y="304" font-size="11" fill="#888780" text-anchor="middle">（報工→品檢→出貨）</text>

  <line x1="245" y1="104" x2="245" y2="130" stroke="#5F5E5A" stroke-width="1.4" marker-end="url(#ah2)"/>
  <path d="M340 155 H360 V81 H378" fill="none" stroke="#5F5E5A" stroke-width="1.4" marker-end="url(#ah2)"/>
  <line x1="475" y1="104" x2="475" y2="130" stroke="#5F5E5A" stroke-width="1.4" marker-end="url(#ah2)"/>
  <line x1="475" y1="178" x2="475" y2="204" stroke="#5F5E5A" stroke-width="1.4" marker-end="url(#ah2)"/>
  <line x1="475" y1="252" x2="475" y2="278" stroke="#5F5E5A" stroke-width="1.4" marker-end="url(#ah2)"/>
  <line x1="475" y1="326" x2="475" y2="352" stroke="#5F5E5A" stroke-width="1.4" marker-end="url(#ah2)"/>
  <line x1="475" y1="400" x2="475" y2="426" stroke="#5F5E5A" stroke-width="1.4" marker-end="url(#ah2)"/>
  <line x1="475" y1="474" x2="475" y2="500" stroke="#5F5E5A" stroke-width="1.4" marker-end="url(#ah2)"/>
  <line x1="570" y1="525" x2="636" y2="525" stroke="#5F5E5A" stroke-width="1.4" marker-end="url(#ah2)"/>

  <path d="M570 155 H608" fill="none" stroke="#888780" stroke-width="1.3" stroke-dasharray="5 3" marker-end="url(#ah2)"/>
  <line x1="708" y1="190" x2="708" y2="204" stroke="#888780" stroke-width="1.3" stroke-dasharray="5 3" marker-end="url(#ah2)"/>
</svg>
